<?xml version="1.0" standalone="no"?>
<!DOCTYPE svg PUBLIC "-//W3C//DTD SVG 20010904//EN"
 "http://www.w3.org/TR/2001/REC-SVG-20010904/DTD/svg10.dtd">
<svg version="1.0" xmlns="http://www.w3.org/2000/svg"
 width="680.000000pt" height="345.000000pt" viewBox="0 0 680.000000 345.000000"
 preserveAspectRatio="xMidYMid meet">

<g transform="translate(0.000000,345.000000) scale(0.100000,-0.100000)"
fill="#FFFFFF" stroke="none">
<path d="M4910 3364 c-14 -2 -65 -9 -115 -15 -127 -16 -253 -49 -380 -102
-409 -168 -712 -461 -892 -861 -98 -217 -135 -392 -139 -660 -2 -104 -5 -191
-8 -193 -3 -3 -94 -23 -203 -44 -109 -22 -250 -50 -313 -64 -63 -13 -311 -62
-550 -109 -239 -47 -464 -92 -500 -100 -68 -16 -355 -72 -640 -126 -91 -17
-196 -38 -235 -46 -90 -19 -186 -39 -524 -108 -151 -31 -286 -62 -300 -69 -56
-27 -51 -101 9 -132 34 -17 239 -34 675 -55 420 -19 1367 -71 1650 -90 83 -5
416 -23 740 -40 325 -16 617 -32 651 -35 57 -6 65 -10 145 -76 140 -117 367
-241 550 -302 72 -24 248 -56 379 -68 229 -22 515 23 738 115 318 131 543 315
731 596 151 227 265 500 285 685 16 149 13 432 -7 541 -41 224 -153 489 -285
673 -248 348 -649 597 -1072 666 -94 15 -342 28 -390 19z m435 -174 c136 -29
200 -52 340 -120 177 -86 264 -148 406 -290 163 -162 251 -293 338 -501 79
-190 110 -374 111 -648 0 -194 0 -195 -102 -441 -156 -377 -403 -657 -726
-819 -158 -80 -252 -110 -437 -142 -222 -38 -482 -21 -698 47 -162 51 -382
168 -489 261 l-47 41 62 32 c266 140 402 242 595 447 129 138 142 162 102 198
-19 17 -23 16 -117 -19 -129 -48 -198 -59 -313 -53 -109 6 -188 36 -300 115
-197 138 -352 211 -485 230 l-50 7 -7 45 c-19 131 -3 328 43 513 75 305 257
587 513 796 180 147 432 264 657 305 130 24 142 24 329 21 129 -3 201 -9 275
-25z m-1720 -1785 c91 -24 186 -72 340 -176 77 -51 172 -107 210 -123 65 -29
80 -31 218 -34 81 -2 147 -8 147 -12 0 -9 -119 -116 -185 -167 -57 -43 -270
-166 -355 -205 l-72 -32 -242 13 c-560 28 -1198 63 -1591 86 -231 14 -526 30
-655 36 -129 5 -324 16 -434 24 -109 8 -224 15 -254 15 -92 0 -49 16 133 49
94 17 206 40 250 51 44 11 166 36 270 55 105 20 210 40 235 46 25 6 153 32
285 59 132 27 375 76 540 110 165 34 401 81 525 105 294 57 398 81 440 99 45
20 121 20 195 1z"/>
<path d="M4622 2789 c-47 -24 -71 -53 -107 -132 -107 -233 -108 -691 -3 -902
70 -139 191 -154 278 -34 83 115 134 422 110 669 -21 220 -75 355 -160 398
-55 27 -64 27 -118 1z m82 -167 c40 -78 50 -151 50 -367 0 -231 -11 -308 -59
-410 -25 -52 -28 -55 -44 -41 -22 20 -47 99 -62 196 -17 113 -6 395 19 492 22
82 57 158 72 158 5 0 16 -13 24 -28z"/>
</g>
</svg>
