<?xml version="1.0" standalone="no"?>
<!DOCTYPE svg PUBLIC "-//W3C//DTD SVG 20010904//EN"
 "http://www.w3.org/TR/2001/REC-SVG-20010904/DTD/svg10.dtd">
<svg version="1.0" xmlns="http://www.w3.org/2000/svg"
 width="676.000000pt" height="369.000000pt" viewBox="0 0 676.000000 369.000000"
 preserveAspectRatio="xMidYMid meet">

<g transform="translate(0.000000,369.000000) scale(0.100000,-0.100000)"
fill="#000000" stroke="none">
<path d="M5347 3608 c-19 -32 -619 -1037 -700 -1174 -76 -128 -61 -120 -247
-130 -192 -10 -403 25 -556 91 l-60 26 -1 122 c-1 193 -46 349 -144 501 -141
220 -375 376 -625 416 -571 92 -1083 -341 -1084 -917 l0 -101 -48 -11 c-238
-51 -850 -171 -860 -169 -9 2 -5 13 11 38 48 71 59 140 23 140 -9 0 -30 -13
-48 -29 -37 -32 -87 -59 -131 -72 -24 -7 -35 -4 -62 17 -59 45 -129 45 -182 0
l-29 -24 -54 19 c-36 12 -66 31 -87 55 -40 45 -67 43 -71 -5 -5 -45 56 -169
103 -209 41 -37 60 -29 -190 -78 -198 -38 -235 -51 -235 -84 0 -40 34 -47 275
-60 127 -6 231 -13 232 -14 2 -1 -4 -43 -12 -93 -8 -50 -22 -157 -30 -238 -9
-81 -24 -174 -35 -206 -29 -86 -87 -212 -92 -203 -3 5 -29 117 -58 249 -29
132 -59 250 -67 263 -21 35 -54 25 -78 -23 -17 -34 -20 -60 -20 -180 0 -133 1
-143 27 -191 15 -28 47 -69 71 -90 39 -34 45 -47 57 -105 13 -66 13 -66 -23
-150 -47 -111 -61 -180 -55 -275 6 -99 37 -165 106 -223 196 -163 565 -160
737 7 45 44 78 108 121 236 54 158 45 210 -51 323 -30 36 -55 70 -55 77 0 6
35 70 79 141 73 121 80 130 111 131 18 1 42 7 55 14 29 16 168 228 161 246
-12 31 -39 10 -91 -71 -30 -47 -60 -85 -65 -85 -28 0 -18 36 30 111 50 77 57
109 26 109 -8 0 -40 -38 -70 -85 -31 -47 -60 -85 -65 -85 -26 0 -18 29 29 106
45 73 51 88 39 99 -20 20 -30 11 -93 -92 -73 -118 -83 -146 -67 -188 11 -31 8
-38 -61 -154 l-73 -122 -19 23 c-34 40 -106 204 -126 285 -23 91 -50 294 -50
370 0 44 3 53 18 53 9 0 136 -7 282 -15 146 -8 389 -21 540 -30 151 -8 327
-18 391 -21 l117 -7 67 -54 c75 -60 238 -142 330 -167 275 -72 578 -13 804
159 l73 56 117 -11 c325 -29 744 -22 940 15 41 8 76 13 77 12 2 -2 168 -302
369 -667 202 -366 373 -675 381 -688 11 -16 23 -22 41 -20 24 3 59 66 385 703
198 385 360 701 361 701 1 1 98 5 215 9 l212 7 0 -119 c0 -123 6 -143 42 -143
9 0 22 9 28 19 15 30 14 823 -2 839 -17 17 -55 15 -62 -4 -3 -9 -6 -62 -6
-118 l0 -103 -202 -7 c-175 -6 -204 -5 -214 8 -6 9 -179 309 -384 668 -206
359 -379 656 -384 660 -20 14 -46 8 -59 -14z m-2272 -242 c72 -20 208 -83 269
-126 119 -81 239 -231 296 -369 49 -120 63 -201 62 -359 l-1 -143 65 -29 c152
-69 323 -109 499 -117 120 -6 323 10 356 27 9 5 68 95 130 201 105 177 119
195 189 254 92 77 222 171 271 196 l36 18 67 -74 c40 -44 75 -75 87 -75 12 0
39 27 74 75 31 41 62 75 70 75 17 0 206 -126 257 -172 24 -22 94 -132 207
-331 l171 -299 -166 -324 -166 -324 -76 -71 c-77 -71 -192 -159 -209 -159 -5
0 -42 38 -81 85 -94 110 -100 110 -176 5 -32 -44 -64 -80 -71 -80 -23 0 -128
87 -231 192 -96 98 -108 113 -209 298 -59 107 -115 203 -125 214 -17 17 -21
17 -81 3 -206 -51 -571 -58 -1059 -21 -74 6 -75 6 -110 -26 -49 -45 -156 -114
-225 -144 -167 -74 -373 -89 -560 -41 -74 19 -223 92 -289 141 l-48 36 85 47
c120 68 140 83 255 195 131 128 136 168 16 127 -146 -48 -221 -38 -354 49
-117 77 -158 98 -228 114 l-57 13 -3 79 c-16 394 271 761 663 848 91 20 314
16 400 -8z m-959 -1012 c21 -9 76 -40 122 -70 134 -87 157 -97 256 -103 l90
-6 -54 -49 c-65 -57 -240 -163 -286 -172 -27 -5 -975 42 -1289 64 l-100 7 -17
50 c-9 28 -13 53 -10 57 4 3 256 56 560 117 305 61 561 116 570 121 22 14 108
5 158 -16z m-1354 -61 c27 -24 23 -69 -7 -89 -51 -33 -107 13 -85 70 14 38 60
48 92 19z m188 2 c0 -6 -73 -55 -83 -55 -5 0 -7 7 -5 17 3 18 88 55 88 38z
m-372 -43 c2 -7 -5 -12 -15 -12 -19 0 -43 18 -43 31 0 12 53 -6 58 -19z m6012
-145 l0 -104 -187 -7 c-102 -3 -188 -4 -190 -2 -3 2 4 21 15 43 28 56 33 95
16 127 -8 16 -14 30 -14 32 0 4 113 9 258 12 l102 2 0 -103z m-5809 -65 c10
-34 21 -104 24 -155 10 -135 32 -325 45 -381 36 -163 119 -326 238 -469 112
-134 118 -156 73 -289 -58 -173 -106 -231 -228 -279 -50 -20 -77 -23 -188 -23
-166 -1 -221 14 -302 84 -100 88 -108 106 -108 229 l0 106 117 272 c121 279
148 369 148 492 0 76 38 300 67 394 l26 88 35 -3 c34 -3 36 -5 53 -66z m-165
32 c-3 -9 -6 -20 -6 -25 0 -11 -150 -12 -168 0 -9 5 11 13 60 24 101 21 122
21 114 1z"/>
<path d="M2616 3139 c-61 -48 -91 -155 -90 -329 0 -151 18 -226 69 -277 40
-40 63 -41 104 -8 92 78 120 410 46 560 -35 73 -80 92 -129 54z m62 -93 c24
-54 35 -190 23 -286 -11 -88 -36 -170 -50 -170 -15 0 -33 56 -43 136 -13 95 0
233 27 302 20 48 27 52 43 18z"/>
</g>
</svg>
